<?xml version="1.0" standalone="no"?>
<!DOCTYPE svg PUBLIC "-//W3C//DTD SVG 20010904//EN"
 "http://www.w3.org/TR/2001/REC-SVG-20010904/DTD/svg10.dtd">
<svg version="1.0" xmlns="http://www.w3.org/2000/svg"
 width="512.000000pt" height="512.000000pt" viewBox="0 0 512.000000 512.000000"
 preserveAspectRatio="xMidYMid meet">
<metadata>
Created by potrace 1.14, written by Peter Selinger 2001-2017
</metadata>
<g transform="translate(0.000000,512.000000) scale(0.100000,-0.100000)"
fill="#000000" stroke="none">
<path d="M1750 5028 c-32 -9 -91 -49 -165 -113 -16 -15 -43 -38 -60 -52 -544
-472 -984 -1045 -1213 -1583 -39 -92 -105 -274 -119 -325 -1 -5 -11 -44 -22
-85 -23 -85 -57 -253 -65 -320 -16 -135 -19 -178 -18 -310 0 -208 8 -300 43
-495 65 -358 213 -703 428 -995 76 -103 267 -293 376 -373 137 -101 391 -222
530 -252 267 -58 451 -53 725 19 98 26 271 108 387 182 53 35 188 142 249 200
15 13 43 26 63 30 50 8 202 48 282 73 278 88 587 258 818 449 66 56 260 247
317 312 282 329 500 785 613 1286 16 71 32 145 35 164 3 19 8 46 11 60 3 14 7
42 10 64 3 21 7 50 9 65 10 54 25 189 31 261 3 41 8 104 11 140 7 83 7 506 0
630 -9 138 -24 284 -33 315 -19 67 -86 109 -188 119 -403 39 -834 36 -1177 -9
-21 -3 -57 -7 -80 -10 -24 -3 -54 -8 -68 -10 -14 -3 -39 -7 -56 -10 -38 -6
-170 -32 -204 -40 -14 -3 -36 -8 -50 -11 -64 -13 -256 -69 -360 -105 -63 -23
-122 -43 -130 -46 -10 -3 -47 31 -105 99 -214 244 -649 650 -722 672 -39 11
-69 13 -103 4z"/>
</g>
</svg>
