<?xml version="1.0" standalone="no"?>
<!DOCTYPE svg PUBLIC "-//W3C//DTD SVG 20010904//EN"
 "http://www.w3.org/TR/2001/REC-SVG-20010904/DTD/svg10.dtd">
<svg version="1.0" xmlns="http://www.w3.org/2000/svg"
 width="1013.000000pt" height="1013.000000pt" viewBox="0 0 1013.000000 1013.000000"
 preserveAspectRatio="xMidYMid meet">
<metadata>
Created by potrace 1.14, written by Peter Selinger 2001-2017
</metadata>
<g transform="translate(0.000000,1013.000000) scale(0.100000,-0.100000)"
fill="#000000" stroke="none">
<path d="M4925 10122 c-6 -6 -7 -2632 -1 -2632 3 0 38 -7 78 -15 110 -22 181
-45 204 -66 20 -19 21 -19 41 3 36 40 55 119 83 353 29 239 44 318 83 427 35
103 94 136 151 86 36 -33 158 -274 171 -339 8 -37 29 -105 36 -112 3 -5 34 10
66 32 33 23 78 48 99 57 52 22 224 84 247 89 11 2 39 16 63 30 42 25 44 28 44
74 0 37 5 52 23 69 34 32 93 30 134 -6 43 -38 91 -117 109 -182 9 -30 34 -85
55 -122 22 -38 46 -85 53 -105 20 -59 12 -147 -18 -207 -33 -64 -116 -155
-178 -194 l-47 -29 42 -18 c23 -10 56 -24 72 -30 30 -12 210 -112 230 -128 26
-20 257 -167 263 -167 4 0 41 -17 82 -37 198 -99 357 -347 438 -683 107 -439
142 -710 142 -1105 0 -156 -23 -509 -39 -605 -5 -30 -14 -95 -21 -145 -6 -49
-15 -106 -21 -126 -5 -20 -9 -50 -9 -68 0 -17 -4 -50 -10 -73 -26 -116 -62
-361 -56 -385 5 -22 4 -25 -5 -13 -8 12 -9 9 -4 -13 4 -19 2 -26 -5 -22 -6 4
-10 -3 -9 -17 0 -13 3 -18 5 -11 5 12 17 5 68 -44 13 -13 28 -23 35 -23 9 0
15 -19 13 -41 -3 -22 190 -37 308 -25 41 5 53 -4 35 -24 -10 -11 -13 -20 -6
-24 6 -4 8 -13 5 -20 -6 -16 55 -26 157 -26 84 0 176 -32 181 -63 4 -24 -7
-31 -317 -185 -16 -9 -41 -27 -54 -41 -14 -14 -34 -31 -45 -36 -12 -6 -22 -19
-25 -30 -2 -11 -9 -24 -17 -28 -8 -4 -14 -14 -14 -21 0 -8 -6 -19 -14 -25 -8
-7 -24 -37 -37 -69 -13 -31 -31 -68 -41 -82 -12 -18 -18 -46 -19 -95 -2 -98 7
-134 57 -231 24 -46 44 -88 44 -93 0 -13 -37 -7 -82 13 -22 9 -49 13 -67 10
-19 -4 -37 -1 -52 10 -26 18 -64 22 -54 6 3 -6 0 -13 -8 -16 -9 -3 -17 -26
-22 -60 -7 -59 -16 -72 -35 -49 -7 8 -18 15 -25 15 -13 0 -35 -41 -35 -66 0
-35 -31 -24 -79 27 -47 50 -52 53 -94 50 -30 -1 -48 3 -56 13 -8 9 -17 16 -22
16 -5 0 0 -9 11 -20 11 -11 20 -26 19 -32 0 -11 -2 -11 -6 0 -8 20 -25 13 -18
-8 8 -26 -3 -26 -25 0 -15 17 -19 18 -23 5 -4 -8 -1 -14 5 -12 6 1 12 -3 15
-10 3 -7 -4 -9 -19 -6 -13 3 -20 3 -16 -1 4 -5 -2 -24 -13 -43 -11 -20 -18
-38 -15 -40 3 -3 -2 -12 -10 -20 -8 -9 -13 -22 -10 -29 3 -8 1 -14 -5 -14 -5
0 -13 -10 -18 -22 -5 -13 -16 -41 -25 -63 -10 -22 -16 -42 -16 -44 1 -2 -2 -7
-7 -10 -6 -3 -24 -33 -42 -66 -43 -78 -112 -182 -150 -226 -17 -18 -31 -37
-31 -41 0 -10 -97 -106 -157 -156 -29 -24 -87 -62 -130 -83 -42 -22 -87 -49
-101 -60 -40 -31 -131 -27 -397 17 -49 8 -101 19 -115 24 -14 5 -59 18 -100
30 -77 23 -92 29 -195 75 -212 95 -439 227 -632 368 l-53 38 0 -992 0 -992
233 6 c786 21 1450 182 2132 517 809 397 1482 985 1983 1735 1133 1697 1133
3923 0 5620 -831 1243 -2154 2051 -3633 2219 -240 28 -692 45 -710 28z m1868
-1256 l-6 -505 33 -31 c19 -18 29 -34 24 -39 -13 -12 -334 139 -334 157 0 10
6 12 23 7 12 -4 35 -8 52 -9 41 -2 51 26 59 155 l6 106 -52 25 c-29 14 -106
49 -170 78 l-118 53 -66 -59 c-68 -60 -104 -106 -104 -136 0 -16 37 -51 63
-61 9 -3 9 -8 1 -16 -8 -9 -43 3 -138 45 -124 56 -153 82 -85 76 55 -5 127 51
469 367 173 160 323 291 332 291 17 0 17 -29 11 -504z m1055 -176 l280 -224
-46 -61 c-70 -93 -84 -106 -97 -95 -9 8 -7 23 7 66 19 56 19 56 -3 101 -30 62
-247 239 -282 229 -22 -7 -428 -506 -474 -584 -31 -51 -29 -80 9 -119 21 -21
29 -36 22 -43 -6 -6 -65 35 -167 117 -157 125 -186 163 -93 122 l48 -21 34 24
c40 27 459 548 480 596 16 35 9 57 -28 99 -24 26 -16 49 11 31 10 -7 144 -114
299 -238z m669 -636 c131 -168 322 -413 334 -430 8 -10 -130 -134 -150 -134
-22 0 -20 21 3 57 40 60 43 94 12 148 -40 73 -187 255 -205 255 -9 0 -68 -41
-131 -91 -63 -50 -123 -97 -134 -104 -17 -13 -13 -21 69 -125 55 -70 100 -117
121 -128 32 -15 37 -15 84 5 39 16 51 18 60 9 7 -10 0 -21 -28 -43 -192 -153
-224 -175 -234 -165 -8 8 -2 24 21 58 36 55 37 59 13 105 -14 27 -120 173
-163 223 -4 4 -75 -44 -158 -109 -116 -90 -151 -123 -151 -140 0 -48 173 -251
245 -287 33 -17 52 -20 122 -15 64 4 85 2 94 -9 7 -8 10 -16 8 -17 -3 -2 -184
-81 -215 -93 -6 -3 -75 78 -154 178 -79 101 -186 236 -237 301 -51 65 -93 122
-93 128 0 15 26 10 41 -7 7 -8 25 -22 41 -30 39 -20 62 -8 233 127 77 60 199
155 270 211 135 105 174 143 174 168 0 8 -8 34 -18 57 -18 39 -18 57 0 51 5
-2 61 -71 126 -154z m598 -846 c7 -18 43 -100 79 -181 56 -127 63 -149 49
-154 -9 -4 -19 -1 -21 6 -10 31 -55 71 -81 71 -14 0 -85 -25 -156 -56 -72 -30
-140 -59 -152 -64 -21 -9 -20 -13 59 -197 44 -103 84 -192 88 -197 12 -12 293
111 321 140 18 19 20 30 15 68 -9 57 -9 61 6 61 15 0 170 -359 156 -364 -6 -2
-27 16 -47 39 -34 40 -40 43 -73 37 -31 -5 -184 -69 -593 -249 -123 -54 -137
-68 -133 -137 2 -30 -1 -55 -7 -57 -7 -3 -110 221 -163 358 -2 4 3 8 11 8 8 0
25 -16 38 -35 27 -40 48 -50 87 -41 22 5 307 123 321 133 5 3 -160 383 -170
389 -14 8 -329 -138 -340 -158 -6 -11 -9 -40 -7 -66 2 -26 -1 -49 -7 -51 -7
-2 -165 337 -165 356 0 14 29 -4 60 -39 l38 -43 43 12 c72 20 660 279 693 305
30 24 30 26 20 76 -6 29 -8 54 -6 57 12 12 24 3 37 -27z m470 -1260 c10 -46
115 -731 115 -752 0 -20 -9 -24 -97 -40 -54 -10 -108 -20 -120 -23 -18 -4 -23
-1 -23 15 0 14 13 24 45 36 24 10 58 34 76 54 l32 36 -6 100 c-4 54 -10 103
-16 109 -5 5 -76 -2 -177 -18 -508 -81 -584 -94 -610 -106 -32 -16 -47 -58
-38 -106 5 -26 3 -33 -10 -33 -8 0 -18 10 -20 23 -12 52 -56 349 -56 373 0 36
22 25 32 -17 5 -19 21 -45 35 -57 23 -21 32 -23 81 -17 108 13 734 113 738
118 7 7 -26 159 -42 189 -20 39 -52 57 -123 70 -47 9 -61 16 -61 29 0 14 15
19 83 27 141 16 156 15 162 -10z m-2448 -3700 c-3 -8 -6 -5 -6 6 -1 11 2 17 5
13 3 -3 4 -12 1 -19z"/>
<path d="M6512 9055 c-79 -73 -144 -137 -144 -142 0 -7 256 -131 274 -132 4
-1 9 18 12 42 8 56 12 367 6 366 -3 0 -69 -60 -148 -134z"/>
<path d="M3216 9574 c-24 -24 -19 -46 15 -75 27 -22 30 -29 21 -46 -11 -20
-164 -93 -195 -93 -25 0 -39 27 -32 59 5 25 2 33 -19 46 -28 19 -58 9 -76 -25
-17 -31 -12 -50 24 -86 33 -33 37 -34 108 -34 83 0 133 19 192 70 64 57 85
129 50 178 -18 26 -65 30 -88 6z"/>
<path d="M3590 9428 c-25 -11 -102 -45 -172 -75 -70 -31 -125 -59 -123 -63 3
-5 31 -6 63 -3 54 5 60 4 79 -21 12 -14 19 -34 17 -44 -9 -38 -85 -396 -114
-537 -17 -82 -33 -157 -36 -165 -7 -19 -254 557 -254 590 1 30 15 50 53 74 27
18 36 36 17 36 -22 0 -346 -146 -345 -155 0 -5 27 -10 60 -10 59 0 59 0 82
-40 48 -84 286 -651 291 -691 4 -40 3 -43 -37 -69 -40 -27 -47 -36 -36 -47 9
-8 357 147 353 158 -2 5 -10 8 -18 7 -78 -13 -130 6 -130 47 0 21 146 720 152
725 2 2 59 -124 126 -279 140 -326 144 -341 82 -384 -40 -28 -50 -42 -27 -42
23 0 349 145 348 155 -1 6 -20 9 -43 7 -74 -6 -84 1 -127 91 -83 175 -271 626
-271 650 0 18 12 36 40 58 64 51 51 63 -30 27z"/>
<path d="M2359 8809 c-79 -66 -150 -127 -158 -135 -26 -24 -2 -28 38 -6 52 29
85 28 120 -5 17 -16 125 -140 241 -278 190 -225 250 -305 250 -334 0 -5 -16
-28 -35 -51 -35 -41 -39 -75 -7 -47 10 8 78 65 152 127 74 62 139 116 144 121
4 4 5 12 2 18 -5 7 -20 2 -44 -14 -72 -49 -89 -40 -210 103 -412 489 -409 485
-397 522 3 9 13 25 23 36 35 40 43 52 34 58 -5 3 -74 -49 -153 -115z"/>
<path d="M4603 8543 c4 -3 1 -13 -6 -22 -11 -14 -10 -14 5 -2 16 12 16 31 1
31 -4 0 -3 -3 0 -7z"/>
<path d="M4510 8484 c-6 -14 -10 -30 -10 -35 0 -6 -4 -8 -9 -4 -5 3 -19 -21
-31 -52 -19 -50 -22 -85 -26 -248 -3 -104 -7 -195 -9 -202 -7 -22 24 -279 49
-405 15 -70 38 -160 52 -200 14 -40 31 -91 38 -113 6 -23 19 -53 29 -68 9 -14
17 -30 17 -35 0 -5 9 -17 20 -27 25 -23 27 -7 5 55 -8 23 -15 44 -15 47 0 2
15 -10 33 -26 30 -29 47 -38 47 -26 0 7 -22 46 -37 65 -20 27 -64 205 -57 237
3 18 -2 60 -15 104 -23 82 -40 247 -44 411 -1 59 -5 99 -9 90 -3 -9 -6 6 -5
33 0 28 -1 130 -2 227 -2 97 0 182 4 187 3 6 1 11 -5 11 -6 0 -15 -12 -20 -26z"/>
<path d="M4401 8474 c0 -11 3 -14 6 -6 3 7 2 16 -1 19 -3 4 -6 -2 -5 -13z"/>
<path d="M1760 8304 c-80 -68 -146 -128 -148 -134 -5 -15 21 -12 44 5 10 8 33
15 50 15 37 0 53 -17 249 -249 72 -85 158 -187 192 -227 72 -84 103 -131 103
-158 0 -11 -12 -35 -26 -53 -58 -76 -1 -45 146 79 190 160 233 206 271 284 52
109 35 208 -51 294 -119 119 -272 104 -462 -48 l-76 -61 -74 87 c-137 162
-142 174 -87 237 19 21 28 40 23 45 -5 4 -71 -45 -154 -116z m650 -195 c72
-43 117 -101 134 -172 11 -46 -19 -130 -66 -184 -38 -44 -84 -83 -99 -83 -13
0 -279 320 -279 336 0 14 72 73 124 101 55 30 138 31 186 2z"/>
<path d="M4603 8350 c0 -25 2 -35 4 -22 2 12 2 32 0 45 -2 12 -4 2 -4 -23z"/>
<path d="M4327 8323 c-4 -3 -7 -18 -7 -31 0 -32 15 -19 15 14 1 27 1 27 -8 17z"/>
<path d="M5513 8189 c-2 -23 3 -25 10 -4 4 8 3 16 -1 19 -4 3 -9 -4 -9 -15z"/>
<path d="M5570 8087 c0 -9 5 -17 11 -17 8 0 8 -4 -1 -14 -7 -10 -8 -21 -2 -32
8 -15 9 -15 15 0 4 10 3 15 -3 11 -13 -8 -13 8 -1 21 6 5 4 16 -5 28 -12 17
-14 18 -14 3z"/>
<path d="M6436 8032 c-3 -5 1 -9 9 -9 8 0 12 4 9 9 -3 4 -7 8 -9 8 -2 0 -6 -4
-9 -8z"/>
<path d="M5610 8011 c0 -6 4 -13 10 -16 6 -3 7 1 4 9 -7 18 -14 21 -14 7z"/>
<path d="M4601 7994 c0 -11 3 -14 6 -6 3 7 2 16 -1 19 -3 4 -6 -2 -5 -13z"/>
<path d="M5596 7987 c3 -10 9 -15 12 -12 3 3 0 11 -7 18 -10 9 -11 8 -5 -6z"/>
<path d="M6320 7986 c0 -2 7 -7 16 -10 8 -3 12 -2 9 4 -6 10 -25 14 -25 6z"/>
<path d="M6294 7967 c-4 -7 -4 -9 1 -5 4 4 14 3 22 -3 8 -7 13 -8 13 -1 0 15
-28 23 -36 9z"/>
<path d="M5633 7958 c3 -9 1 -19 -6 -22 -9 -3 -9 -5 0 -5 18 -1 23 13 11 29
-8 12 -9 12 -5 -2z"/>
<path d="M1317 7778 c-58 -90 -102 -165 -96 -166 5 -2 26 11 46 28 30 27 42
31 70 27 26 -5 249 -138 296 -177 5 -4 -45 -89 -110 -189 l-119 -181 -124 81
c-187 122 -198 136 -166 214 9 20 11 37 5 40 -9 6 -219 -306 -219 -325 0 -17
11 -11 51 25 22 19 44 35 49 35 26 0 90 -37 285 -164 331 -217 377 -249 397
-277 18 -24 18 -28 3 -73 -16 -46 -14 -69 4 -50 28 29 210 318 205 326 -3 5
-23 -7 -45 -27 -44 -39 -65 -43 -112 -19 -33 17 -255 161 -271 175 -12 11 223
371 238 362 95 -59 248 -163 274 -186 35 -34 40 -60 18 -112 -10 -22 -11 -37
-5 -41 6 -3 11 -4 13 -3 45 64 206 319 206 327 0 19 -10 14 -51 -23 -22 -19
-45 -35 -53 -35 -7 0 -33 11 -57 24 -67 35 -602 390 -618 409 -13 17 -11 67 4
115 18 56 -21 10 -118 -140z"/>
<path d="M4602 7920 c0 -14 2 -19 5 -12 2 6 2 18 0 25 -3 6 -5 1 -5 -13z"/>
<path d="M6400 7876 c-7 -31 -22 -63 -39 -81 -15 -16 -52 -61 -80 -99 -64 -84
-86 -102 -134 -111 -40 -8 -51 6 -19 24 9 6 14 11 10 11 -18 0 -268 -125 -312
-157 -29 -21 -63 -36 -85 -38 -20 -2 -43 -5 -51 -8 -8 -2 -53 -14 -100 -25
-47 -11 -96 -24 -109 -28 -19 -6 -16 0 17 32 22 21 48 46 58 55 32 27 55 59
85 117 51 98 35 110 -36 26 -32 -37 -67 -65 -105 -83 -32 -16 -68 -35 -80 -44
-19 -13 -27 -14 -39 -4 -14 11 -14 10 -3 -5 12 -15 12 -20 -1 -32 -8 -8 -16
-14 -18 -12 -2 1 -12 -6 -21 -16 -10 -10 -16 -18 -13 -18 3 0 1 -9 -5 -20 -6
-11 -15 -18 -20 -15 -6 3 -7 0 -4 -8 3 -8 1 -17 -4 -21 -5 -3 -7 -19 -4 -37 2
-17 7 -27 11 -22 3 5 20 17 36 26 l30 18 -22 -19 c-13 -11 -32 -41 -43 -66
-10 -25 -23 -46 -27 -46 -4 0 -25 4 -45 9 -26 6 -36 6 -31 -2 4 -6 0 -8 -11
-4 -10 4 -24 -1 -35 -12 -10 -10 -43 -27 -72 -36 -29 -10 -60 -24 -67 -32 -44
-44 -239 -109 -398 -132 -137 -20 -319 -14 -377 14 -17 8 -42 13 -55 10 -13
-2 -33 0 -45 4 -16 6 -36 2 -72 -17 -27 -14 -79 -29 -115 -34 -36 -5 -82 -11
-102 -14 -22 -4 -38 -2 -38 4 0 5 -10 13 -22 17 -34 10 -168 11 -168 2 0 -5
-27 -7 -59 -5 -33 2 -57 0 -55 -4 3 -4 -4 -8 -15 -8 -15 0 -19 5 -14 18 5 16
5 16 -8 -1 -8 -9 -34 -22 -59 -27 -39 -8 -35 -9 33 -5 92 6 94 -6 4 -34 -86
-26 -194 -34 -312 -21 -84 10 -272 28 -325 31 -8 1 -34 6 -57 11 -36 9 -45 7
-60 -8 -17 -17 -17 -17 0 -11 9 3 17 2 17 -3 0 -6 3 -9 8 -8 13 3 42 -14 37
-22 -3 -5 3 -6 12 -4 10 2 36 -4 58 -14 l40 -19 -33 -1 c-18 0 -30 2 -28 6 8
14 -147 -7 -161 -22 -4 -3 14 -6 38 -6 24 0 100 -9 169 -20 114 -18 133 -18
235 -6 60 8 146 17 190 21 44 3 103 14 131 24 38 12 89 18 190 19 141 3 186
-6 147 -26 -30 -16 -138 -32 -219 -32 -39 0 -89 -6 -111 -14 -22 -8 -62 -17
-89 -20 -81 -10 -103 -17 -171 -48 -147 -69 -330 -52 -514 49 -3 2 -6 -3 -6
-12 0 -8 4 -15 9 -15 5 0 6 -5 2 -12 -4 -6 -3 -8 4 -4 6 3 14 1 19 -7 4 -7 35
-26 68 -42 33 -17 62 -32 65 -35 3 -3 23 -14 45 -25 22 -11 42 -23 45 -26 3
-4 30 -14 62 -23 69 -20 204 -21 278 -2 l55 15 -45 -37 c-122 -101 -267 -254
-350 -369 -19 -26 -39 -52 -43 -58 -40 -50 -125 -210 -190 -355 -18 -41 -65
-194 -79 -260 -31 -147 -42 -374 -23 -490 3 -19 8 -49 10 -66 14 -116 100
-340 184 -483 71 -119 215 -335 249 -372 14 -15 25 -30 25 -35 0 -5 5 -13 12
-19 7 -5 62 -75 123 -155 140 -183 252 -322 306 -380 23 -25 81 -90 128 -145
47 -55 115 -130 151 -167 35 -38 63 -68 61 -68 -2 0 98 -102 224 -227 226
-226 428 -414 572 -533 41 -34 86 -71 100 -83 14 -12 52 -42 85 -67 74 -55 80
-60 133 -104 24 -20 48 -36 52 -36 5 0 15 -6 22 -13 7 -7 45 -34 83 -60 39
-26 75 -51 80 -55 6 -5 42 -27 80 -50 39 -23 76 -46 83 -52 16 -14 281 -149
347 -176 70 -30 221 -81 275 -94 137 -32 287 -49 276 -31 -8 12 20 94 55 162
7 14 3 15 -34 8 -23 -5 -105 -11 -182 -14 l-140 -6 45 28 c39 24 105 77 73 59
-7 -4 -13 -2 -13 5 0 9 -17 10 -62 6 -35 -3 -81 -2 -102 1 -36 6 -38 8 -22 21
16 14 15 16 -16 33 l-33 19 30 -6 c16 -4 32 -7 36 -8 3 -1 52 45 109 103 57
58 97 100 90 95 -27 -19 -123 -54 -205 -74 -130 -33 -222 -43 -331 -39 -57 2
-97 0 -91 -5 27 -19 100 -47 108 -41 5 3 8 0 7 -6 -4 -16 194 -86 280 -99 36
-6 70 -15 76 -21 13 -13 -23 -13 -73 -1 -20 5 -72 17 -116 27 -44 10 -93 23
-110 29 -16 7 -41 16 -55 20 -22 7 -23 6 -11 -9 58 -69 -281 95 -519 253 -30
20 -57 39 -60 42 -3 3 -16 12 -29 19 -21 11 -179 127 -191 140 -3 3 -21 17
-40 30 -19 13 -40 29 -46 35 -6 5 -40 34 -75 64 -137 117 -330 326 -434 471
-16 23 -82 90 -145 150 -63 59 -160 154 -215 211 -55 57 -114 117 -131 134
-31 31 -180 204 -250 290 -162 200 -319 429 -395 575 -24 47 -47 87 -51 88 -5
2 -8 8 -8 13 0 5 -19 48 -41 96 -80 170 -159 409 -159 479 0 31 22 114 31 114
3 0 2 -24 -3 -52 -4 -29 -5 -73 -2 -98 7 -53 36 -160 44 -160 3 0 12 17 20 37
l15 36 24 -59 c13 -32 39 -90 57 -129 18 -40 35 -96 39 -130 7 -62 59 -213
101 -297 32 -64 39 -61 12 5 -39 94 -69 187 -74 230 -5 40 -3 37 48 -53 84
-150 181 -296 303 -460 81 -110 240 -308 261 -327 14 -13 57 -60 96 -105 95
-111 260 -289 264 -285 2 2 -3 25 -11 52 -17 54 -20 115 -6 100 5 -6 30 -50
56 -100 97 -184 188 -297 400 -494 3 -2 -7 20 -21 49 -45 94 -24 89 67 -16
123 -142 325 -338 464 -449 66 -53 156 -132 200 -176 100 -98 178 -156 227
-169 42 -12 283 -17 341 -7 60 10 163 37 219 58 29 11 61 22 70 24 28 6 160
75 195 101 17 13 35 24 38 24 4 0 21 12 38 26 23 20 32 22 38 12 5 -7 9 -16 9
-20 0 -4 -76 -72 -169 -152 -93 -80 -180 -160 -195 -178 l-26 -33 35 -3 c50
-5 148 23 223 63 36 19 69 32 74 29 18 -11 5 -31 -42 -64 -61 -43 -64 -60 -10
-61 52 -2 57 -3 65 -11 12 -12 -103 -40 -134 -33 -17 3 -32 2 -36 -5 -3 -5
-10 -8 -15 -5 -5 3 -11 1 -15 -5 -17 -27 214 -3 273 29 12 6 22 9 22 6 0 -3
15 2 33 10 l32 16 -25 -20 c-14 -11 -37 -29 -52 -41 -29 -22 -117 -185 -106
-196 15 -14 85 -13 138 2 98 28 188 83 283 174 50 47 102 103 116 124 14 21
38 57 54 80 60 90 122 212 123 245 1 18 7 37 15 42 12 8 12 11 -1 20 -11 8
-12 12 -2 16 18 7 15 23 -4 16 -13 -5 -15 -2 -10 14 8 25 -21 41 -30 18 -7
-17 -25 -10 -23 8 6 50 -3 128 -17 141 -9 9 -17 35 -19 58 -2 25 -9 44 -16 46
-10 2 -10 0 1 -7 13 -9 13 -11 -2 -11 -9 0 -18 -6 -21 -13 -2 -6 -2 -2 -1 10
2 12 0 32 -5 45 l-10 23 -1 -25 c0 -18 -3 -21 -9 -11 -11 16 -14 6 -30 -89
-18 -102 -19 -114 -21 -135 l-1 -20 -8 20 c-9 23 5 207 19 248 5 15 7 34 3 42
-8 21 -63 80 -77 81 -6 1 -17 2 -23 3 -7 0 -13 7 -13 15 0 15 -37 32 -47 22
-3 -3 -12 2 -20 12 -8 9 -12 12 -9 5 4 -6 8 -24 10 -40 2 -15 9 -54 16 -86 13
-68 9 -87 -20 -87 -18 0 -20 -6 -20 -77 0 -43 -4 -83 -8 -89 -4 -5 -27 -20
-52 -32 -48 -24 -57 -21 -103 36 -10 12 -25 29 -33 36 -8 8 -14 19 -14 25 0 6
-5 11 -11 11 -5 0 -8 4 -5 9 4 5 3 11 -1 13 -5 1 -16 20 -26 42 -16 35 -16 38
-1 32 12 -5 15 -2 9 11 -23 62 -26 111 -8 149 15 33 23 39 53 42 31 3 40 -2
69 -38 17 -22 38 -57 45 -77 9 -26 14 -32 19 -21 6 18 -67 138 -84 138 -6 0
-8 4 -4 9 3 5 -4 16 -15 24 -11 7 -17 17 -13 21 4 4 -1 4 -12 0 -11 -4 -17 -4
-13 1 11 12 -50 58 -64 48 -7 -4 -24 -8 -38 -9 -62 -3 -80 -21 -80 -86 0 -16
-4 -28 -9 -28 -38 0 -211 139 -211 169 0 7 -12 23 -27 37 -26 24 -26 24 -7 46
10 12 13 18 7 14 -8 -4 -13 -1 -13 9 0 8 -7 18 -16 22 -17 6 -66 101 -59 114
3 4 0 11 -6 15 -8 5 -9 3 -4 -6 5 -8 4 -11 -3 -6 -6 4 -9 13 -6 21 4 8 9 13
13 11 4 -3 12 4 19 15 7 10 8 19 3 19 -5 0 -11 -6 -14 -12 -2 -7 -8 -10 -12
-6 -4 4 -2 14 5 23 7 8 10 21 7 29 -7 18 11 36 32 29 12 -3 11 -1 -2 7 -14 9
-22 9 -30 1 -6 -6 -16 -11 -21 -11 -18 1 27 30 45 30 18 0 35 -33 25 -49 -3
-4 5 -8 17 -7 12 1 26 -3 30 -9 5 -6 7 -4 4 5 -2 8 -13 14 -23 12 -14 -2 -16
-1 -5 6 11 8 11 10 0 15 -8 3 -9 6 -3 6 17 1 55 -39 48 -51 -4 -7 -2 -8 4 -4
7 4 12 2 12 -5 0 -7 3 -10 6 -7 8 8 -42 104 -83 161 -19 26 -49 55 -65 63 -29
15 -32 15 -60 -6 -42 -31 -57 -13 -31 36 33 63 110 77 176 32 15 -11 27 -16
27 -12 0 4 7 -1 16 -12 8 -10 12 -12 8 -4 -4 8 -14 24 -23 34 -9 11 -11 16 -4
13 14 -9 16 -16 -60 218 -82 256 -177 674 -212 935 -46 342 -62 621 -46 808
14 159 38 300 56 333 13 24 13 27 -10 39 -31 16 -55 67 -55 115 0 27 8 44 30
66 36 36 71 32 113 -15 25 -28 27 -37 23 -88 -3 -50 -2 -57 16 -61 11 -3 26 0
34 6 50 43 77 72 93 100 15 27 24 32 59 35 32 2 42 7 42 20 0 23 55 89 88 106
15 7 44 16 65 20 28 5 37 12 37 27 0 47 46 104 98 118 107 31 248 -109 284
-283 13 -62 0 -113 -27 -102 -19 7 -19 8 9 -55 52 -119 41 -253 -27 -321 -19
-18 -37 -50 -43 -76 -10 -40 -9 -48 10 -77 l22 -32 28 39 c50 70 141 101 221
74 68 -23 78 -30 135 -89 92 -92 129 -204 112 -332 -10 -75 -40 -135 -67 -135
-16 0 -21 23 -30 115 -12 136 -47 253 -84 283 -35 27 -92 52 -121 52 -37 0
-85 -21 -122 -52 -26 -23 -27 -24 -18 -95 10 -74 25 -114 65 -168 12 -16 23
-37 23 -45 0 -8 16 -73 36 -144 20 -70 34 -131 32 -135 -2 -3 2 -35 10 -71 7
-36 14 -124 14 -196 0 -132 0 -132 25 -138 36 -9 83 -65 99 -116 10 -33 11
-68 6 -130 -4 -47 -4 -92 1 -100 5 -8 9 -11 9 -7 0 4 17 -10 39 -33 26 -27 44
-38 55 -34 12 5 15 2 10 -10 -8 -20 3 -21 22 -1 9 8 26 15 40 15 15 0 24 6 24
15 0 8 4 15 9 15 5 0 18 3 28 6 16 6 16 5 -2 -9 -21 -17 -10 -23 14 -8 8 5 11
16 7 26 -4 11 -2 15 6 13 7 -3 18 5 24 16 110 199 107 192 109 269 1 40 10
141 20 225 20 183 16 229 -27 271 -18 17 -36 31 -41 31 -4 0 -2 7 7 15 8 8 25
15 38 15 18 0 20 -2 8 -10 -14 -9 -7 -15 15 -10 6 1 5 -4 -1 -10 -9 -9 -17 -9
-33 -1 -12 7 -21 9 -21 7 0 -9 57 -36 63 -30 3 3 3 16 1 30 l-4 24 35 -21 c22
-13 43 -38 57 -67 41 -85 26 -287 -28 -390 -8 -15 -14 -32 -14 -38 0 -5 -13
-23 -30 -39 -26 -25 -30 -35 -29 -79 1 -28 4 -41 6 -28 8 40 27 18 39 -44 6
-32 21 -81 34 -108 13 -28 20 -60 18 -77 -3 -22 -1 -28 10 -27 8 2 17 -4 19
-12 4 -13 3 -13 -6 0 -8 11 -10 3 -8 -30 0 -25 7 -51 15 -59 11 -11 12 -9 6
13 -4 16 -2 26 5 26 6 0 11 9 11 20 0 11 4 39 10 62 26 116 91 519 120 743 50
386 34 996 -35 1301 -17 76 -23 112 -24 133 -1 8 -4 12 -7 9 -3 -3 2 -54 11
-112 27 -181 23 -569 -5 -551 -10 6 -38 124 -44 189 -7 74 -35 250 -57 366
-11 58 -22 119 -25 135 -7 48 -33 123 -33 98 -1 -13 -4 -23 -8 -23 -5 0 -37
51 -73 113 -55 96 -106 177 -170 271 -40 58 -166 200 -232 260 -132 121 -339
244 -468 279 -30 8 -63 18 -72 22 -13 5 -18 2 -18 -9 0 -10 -9 -16 -23 -16
-40 0 -38 -12 4 -33 67 -33 36 -53 -84 -56 -62 -1 -168 -18 -332 -53 -55 -12
-118 -24 -140 -28 -22 -5 -66 -13 -97 -20 -31 -7 -64 -10 -73 -6 -14 5 -12 10
12 34 24 25 108 79 123 80 5 1 48 17 85 32 17 7 15 9 -12 9 -17 1 -35 6 -38
12 -16 25 88 95 184 125 54 17 233 19 263 3 11 -6 36 -8 56 -5 46 7 179 -7
252 -27 122 -32 309 -131 396 -209 12 -11 37 -22 55 -25 31 -4 29 -1 -31 39
-36 23 -67 45 -70 49 -3 3 -34 23 -70 44 -36 22 -72 44 -80 51 -19 15 -210
114 -265 136 -70 29 -132 48 -179 54 -26 4 -49 12 -53 18 -3 6 -3 8 2 4 4 -4
24 1 44 12 46 24 128 80 118 80 -4 0 -2 6 5 14 7 8 18 11 23 8 6 -3 7 -2 3 2
-9 10 11 66 24 66 5 0 29 13 52 30 24 16 45 28 47 27 2 -1 3 0 2 2 -1 2 6 16
16 30 11 15 22 42 25 61 10 61 13 109 7 116 -3 3 -6 9 -6 14 0 4 -17 35 -39
68 -32 50 -45 62 -77 70 l-38 10 -11 -52z m-1247 -971 c39 -16 57 -45 29 -45
-49 -2 -124 -11 -182 -22 -36 -6 -68 -11 -72 -10 -5 1 -8 -2 -8 -6 0 -4 15
-13 33 -20 73 -26 198 -185 169 -214 -13 -13 -28 -7 -102 42 -118 76 -134 83
-190 84 -51 1 -60 -3 -100 -36 -24 -21 -49 -38 -56 -38 -15 0 -23 41 -13 68
l8 21 -44 -21 c-50 -24 -54 -32 -25 -48 11 -6 20 -16 20 -23 0 -9 -35 -10
-152 -4 -132 7 -173 5 -298 -13 -120 -18 -160 -28 -234 -61 -48 -22 -101 -50
-118 -62 -27 -20 -31 -20 -41 -6 -15 20 -51 9 -61 -18 -7 -17 -8 -17 -17 -1
-8 15 -20 14 -137 -18 -70 -18 -169 -52 -220 -74 -52 -22 -97 -38 -102 -35
-13 8 -1 36 29 68 72 79 202 142 356 172 70 14 97 24 120 46 46 43 153 89 205
89 25 0 68 6 95 13 38 10 90 12 215 6 91 -4 178 -10 193 -14 23 -6 34 -2 55
18 49 45 91 59 202 68 106 8 235 41 313 80 20 11 37 16 37 12 0 -4 5 -2 12 5
16 16 38 15 81 -3z m1341 -26 c-3 -5 -10 -7 -15 -3 -5 3 -7 10 -3 15 3 5 10 7
15 3 5 -3 7 -10 3 -15z m-451 -78 c66 -37 76 -45 96 -82 46 -81 16 -114 -57
-64 -20 14 -42 25 -49 25 -7 0 -13 4 -13 8 0 11 -91 32 -138 32 -89 0 -108 34
-43 77 45 31 153 33 204 4z m493 -13 c0 -10 -1 -18 -3 -18 -1 0 -7 8 -12 18
-7 13 -6 19 2 19 7 0 13 -9 13 -19z m-125 -65 c42 -25 54 -75 33 -136 -15 -45
-17 -47 -55 -47 -52 0 -95 39 -108 98 -8 38 -6 46 16 72 29 35 69 39 114 13z
m-3310 -581 c-88 -91 -166 -248 -194 -397 -6 -30 -6 -30 6 -5 38 81 194 266
296 354 49 42 92 76 94 76 3 0 -39 -79 -93 -177 -55 -97 -96 -181 -93 -186 3
-6 1 -7 -4 -4 -6 4 -18 -9 -26 -31 -9 -20 -28 -56 -42 -80 -23 -37 -15 -32 64
44 50 48 88 91 84 97 -4 6 -1 7 7 2 8 -5 18 -1 27 10 20 28 16 5 -8 -39 -11
-21 -18 -40 -15 -43 3 -3 -1 -11 -8 -18 -36 -37 -96 -275 -96 -384 0 -121 61
-257 149 -333 32 -28 33 -29 6 -13 -37 22 -105 90 -105 104 0 6 -4 11 -8 11
-5 0 -22 33 -38 73 -26 64 -29 84 -29 182 0 106 19 217 47 272 6 13 9 25 6 28
-8 8 -87 -65 -118 -110 -26 -38 -34 -43 -53 -36 -31 12 -33 36 -5 79 14 20 28
44 32 52 4 8 18 33 31 55 13 22 35 63 49 90 14 28 41 78 60 113 19 34 33 62
31 62 -6 0 -120 -137 -165 -201 -25 -34 -71 -105 -102 -158 -54 -90 -71 -102
-48 -35 5 16 11 49 13 74 1 25 5 50 8 55 4 6 18 48 34 94 38 119 99 233 159
298 39 43 99 93 112 93 1 0 -28 -31 -65 -68z m3837 32 c54 -37 53 -132 -2
-165 -40 -24 -61 -24 -97 2 -26 18 -29 26 -29 73 0 60 13 83 55 95 43 13 48
13 73 -5z m-2163 -265 c49 -39 81 -80 106 -134 48 -103 49 -252 1 -243 -11 2
-42 53 -87 144 -38 77 -85 162 -103 188 -18 26 -29 52 -26 58 9 14 87 4 109
-13z m581 -131 c57 -44 85 -98 104 -201 11 -62 8 -180 -6 -225 -12 -35 -39
-88 -58 -109 -21 -25 -46 -30 -46 -10 0 7 -13 12 -31 13 -17 1 -42 10 -57 21
-32 24 -71 98 -72 136 0 37 25 96 45 103 24 9 60 -3 86 -30 42 -43 45 -22 17
109 -13 64 -46 123 -72 132 -12 3 -37 5 -57 4 -30 -2 -37 2 -42 19 -3 12 -3
19 0 16 3 -3 19 6 35 19 40 34 113 35 154 3z m2131 -390 c2 -17 0 -19 -7 -8
-5 8 -6 18 -4 22 8 12 10 10 11 -14z m-131 -30 c4 -7 4 -10 -1 -6 -4 4 -15 2
-24 -5 -14 -11 -14 -10 -2 6 16 20 18 21 27 5z m121 -30 c-3 -8 -6 -5 -6 6 -1
11 2 17 5 13 3 -3 4 -12 1 -19z m-53 -60 c-10 -13 -19 -24 -20 -26 -1 -2 -4 4
-8 13 -3 9 -2 14 3 11 5 -3 11 1 15 9 3 8 11 15 17 15 7 0 4 -9 -7 -22z m18
-30 c-8 -8 -9 -4 -5 13 4 13 8 18 11 10 2 -7 -1 -18 -6 -23z m-4732 -75 c-10
-16 -11 -15 -6 7 3 14 7 39 8 55 1 26 2 25 5 -7 2 -21 -1 -46 -7 -55z m4672
62 c9 4 18 2 21 -2 3 -5 -6 -9 -20 -8 -15 0 -28 7 -30 15 -4 11 -2 12 5 2 5
-7 16 -10 24 -7z m-4629 -111 c2 -16 -2 -49 -9 -74 -12 -44 -12 -43 -12 50 -1
90 9 101 21 24z m4108 -16 c25 -28 43 -90 36 -121 -4 -13 -19 -36 -33 -50 -46
-46 -94 -31 -126 39 -22 51 -18 88 13 129 27 33 83 35 110 3z m-1927 -184 c3
-8 2 -12 -4 -9 -6 3 -10 10 -10 16 0 14 7 11 14 -7z m-2109 -82 c3 -17 1 -34
-5 -37 -5 -3 -11 2 -11 12 -1 10 -3 34 -5 53 -3 41 12 21 21 -28z m2148 6 c39
-46 37 -90 -7 -134 -19 -19 -40 -34 -48 -34 -7 0 -30 13 -50 30 -60 50 -59
136 2 167 35 18 70 8 103 -29z m2242 -288 c4 -6 10 -8 15 -5 5 3 19 -9 32 -27
19 -27 23 -46 23 -100 0 -61 -2 -68 -30 -92 -33 -29 -63 -28 -95 2 -25 23 -44
72 -28 72 9 0 9 3 0 12 -14 14 -15 57 -2 78 5 8 10 11 10 7 0 -5 5 -5 11 -1 8
4 7 9 -2 15 -11 7 -9 9 5 9 11 0 16 3 13 7 -4 3 1 12 11 19 21 16 29 17 37 4z
m-1797 -251 c177 -130 229 -509 82 -592 -38 -21 -69 -19 -105 7 -19 14 -18 15
15 29 34 15 34 15 8 16 -33 1 -94 57 -103 94 -10 38 3 95 23 106 10 5 36 6 60
1 36 -6 40 -5 31 7 -9 11 -9 17 0 26 10 9 11 8 6 -5 -4 -11 -2 -18 4 -18 6 0
11 -6 11 -14 0 -8 5 -18 11 -22 15 -9 4 81 -16 129 -20 48 -19 54 4 33 11 -10
25 -15 31 -11 6 3 9 1 8 -7 -2 -7 6 -13 17 -13 13 0 21 8 23 23 2 12 -2 22 -8
22 -6 0 -8 -5 -4 -12 4 -7 3 -8 -5 -4 -9 6 -9 11 0 22 9 11 8 15 -6 20 -13 5
-14 9 -3 15 10 7 10 9 1 9 -7 0 -13 7 -13 15 0 8 -4 15 -10 15 -5 0 -10 5 -10
10 0 19 -43 69 -53 63 -6 -3 -7 -1 -3 5 7 11 -7 16 -41 15 -7 -1 -10 4 -7 9 3
5 12 7 20 4 29 -11 13 4 -18 18 -25 11 -28 15 -12 15 11 1 39 -13 62 -30z m57
-197 c-17 -15 -18 -15 -6 0 7 9 9 23 5 30 -6 10 -4 11 7 0 11 -10 10 -15 -6
-30z m340 -871 c3 -5 1 -12 -5 -16 -5 -3 -10 1 -10 9 0 18 6 21 15 7z m-637
-116 c-3 -3 -9 2 -12 12 -6 14 -5 15 5 6 7 -7 10 -15 7 -18z m-4 -31 c3 -8 2
-12 -4 -9 -6 3 -10 10 -10 16 0 14 7 11 14 -7z m80 -199 c3 -8 1 -15 -4 -15
-6 0 -10 7 -10 15 0 8 2 15 4 15 2 0 6 -7 10 -15z m-533 -12 c11 -15 11 -16
-1 -6 -11 10 -17 10 -29 0 -14 -11 -14 -10 -2 6 7 9 15 17 16 17 1 0 9 -8 16
-17z m559 -23 c0 -5 -5 -10 -11 -10 -5 0 -7 5 -4 10 3 6 8 10 11 10 2 0 4 -4
4 -10z m-43 -52 c-37 -53 -49 -64 -54 -49 -5 11 -7 11 -15 0 -6 -10 -7 -6 -2
11 3 14 11 31 17 38 9 11 13 11 24 -3 11 -16 13 -16 24 9 7 14 14 24 17 21 3
-2 -2 -15 -11 -27z m1068 22 c3 -6 -1 -7 -9 -4 -18 7 -21 14 -7 14 6 0 13 -4
16 -10z m85 -75 c0 -2 -9 -3 -19 -2 -11 0 -18 5 -15 9 4 6 34 0 34 -7z m-1484
-67 c3 -4 -1 -5 -10 -4 -8 1 -18 5 -22 8 -3 4 1 5 10 4 8 -1 18 -5 22 -8z
m967 -70 c53 -16 128 -90 165 -164 33 -67 55 -187 42 -237 -4 -17 -11 -44 -14
-59 -15 -65 -105 -128 -162 -114 -32 8 -30 27 6 51 43 28 64 79 62 145 -6 155
-118 330 -211 330 -31 0 -37 21 -11 42 26 21 66 23 123 6z m-92 -215 c-12 -20
-14 -14 -5 12 4 9 9 14 11 11 3 -2 0 -13 -6 -23z m122 -58 c-3 -9 -8 -14 -10
-11 -3 3 -2 9 2 15 9 16 15 13 8 -4z m734 -29 c36 -17 57 -35 69 -58 9 -18 24
-42 33 -52 9 -11 10 -16 4 -12 -15 8 -18 -10 -3 -19 5 -3 6 -13 3 -21 -3 -9 0
-20 7 -24 10 -6 11 -12 3 -22 -6 -7 -13 -38 -17 -69 -6 -61 -45 -140 -79 -164
-28 -19 -37 -11 -37 35 0 25 -5 40 -16 44 -11 4 -13 13 -8 28 4 13 10 25 14
28 4 3 4 23 0 45 l-8 40 -1 -36 c0 -20 -6 -51 -13 -69 -9 -26 -9 -35 0 -38 7
-2 12 -8 12 -13 0 -13 -40 9 -60 32 -8 11 -26 20 -39 22 -27 4 -38 21 -22 32
6 3 11 11 11 16 0 6 -4 7 -10 4 -14 -9 -13 8 2 23 9 9 9 12 0 12 -20 0 15 59
42 71 27 13 86 -12 86 -36 0 -7 4 -16 9 -20 15 -8 4 81 -14 115 -9 17 -35 39
-63 53 -56 28 -60 48 -12 64 47 16 48 16 107 -11z m-723 -41 c5 -22 4 -26 -4
-15 -5 8 -10 24 -10 34 0 26 6 18 14 -19z m26 25 c0 -5 -2 -10 -4 -10 -3 0 -8
5 -11 10 -3 6 -1 10 4 10 6 0 11 -4 11 -10z m801 -33 c-1 -4 -1 -14 -1 -24 0
-22 -13 -8 -17 18 -2 12 2 19 8 17 6 -2 10 -7 10 -11z m-233 -312 c-3 -3 -9 2
-12 12 -6 14 -5 15 5 6 7 -7 10 -15 7 -18z m69 -31 c-3 -3 -12 -4 -19 -1 -8 3
-5 6 6 6 11 1 17 -2 13 -5z"/>
<path d="M7225 4520 c3 -5 8 -10 11 -10 2 0 4 5 4 10 0 6 -5 10 -11 10 -5 0
-7 -4 -4 -10z"/>
<path d="M7131 4454 c0 -11 3 -14 6 -6 3 7 2 16 -1 19 -3 4 -6 -2 -5 -13z"/>
<path d="M5185 2787 c-4 -10 -5 -21 -1 -24 10 -10 18 4 13 24 -4 17 -4 17 -12
0z"/>
<path d="M6548 2113 c7 -3 16 -2 19 1 4 3 -2 6 -13 5 -11 0 -14 -3 -6 -6z"/>
<path d="M6501 2055 c0 -17 -6 -36 -13 -43 -6 -6 -10 -13 -7 -15 2 -2 11 3 19
12 10 11 13 26 9 46 l-7 30 -1 -30z"/>
<path d="M5431 7904 c0 -11 3 -14 6 -6 3 7 2 16 -1 19 -3 4 -6 -2 -5 -13z"/>
<path d="M6120 7886 c0 -2 7 -7 16 -10 8 -3 12 -2 9 4 -6 10 -25 14 -25 6z"/>
<path d="M5422 7845 c0 -16 2 -22 5 -12 2 9 2 23 0 30 -3 6 -5 -1 -5 -18z"/>
<path d="M4606 7835 c-9 -26 -7 -32 5 -12 6 10 9 21 6 23 -2 3 -7 -2 -11 -11z"/>
<path d="M5415 7789 c-4 -6 -5 -12 -2 -15 2 -3 7 2 10 11 7 17 1 20 -8 4z"/>
<path d="M4331 7744 c0 -11 3 -14 6 -6 3 7 2 16 -1 19 -3 4 -6 -2 -5 -13z"/>
<path d="M3170 7746 c0 -2 7 -7 16 -10 8 -3 12 -2 9 4 -6 10 -25 14 -25 6z"/>
<path d="M3199 7713 c-12 -16 -12 -17 2 -6 9 7 20 9 24 5 5 -4 5 -1 1 6 -9 16
-11 15 -27 -5z"/>
<path d="M5764 7698 l-19 -23 23 19 c21 18 27 26 19 26 -2 0 -12 -10 -23 -22z"/>
<path d="M3131 7654 c0 -11 3 -14 6 -6 3 7 2 16 -1 19 -3 4 -6 -2 -5 -13z"/>
<path d="M3275 7661 c-3 -5 -2 -12 3 -15 5 -3 9 1 9 9 0 17 -3 19 -12 6z"/>
<path d="M5684 7656 c1 -8 5 -18 8 -22 4 -3 5 1 4 10 -1 8 -5 18 -8 22 -4 3
-5 -1 -4 -10z"/>
<path d="M3315 7650 c-3 -5 -5 -10 -3 -11 33 -8 38 -7 27 7 -14 17 -16 17 -24
4z"/>
<path d="M5392 7605 c0 -16 2 -22 5 -12 2 9 2 23 0 30 -3 6 -5 -1 -5 -18z"/>
<path d="M5675 7609 c-4 -6 -5 -12 -2 -15 2 -3 7 2 10 11 7 17 1 20 -8 4z"/>
<path d="M3378 7605 c-3 -6 6 -19 21 -30 16 -11 21 -13 14 -4 -7 9 -9 20 -5
24 4 5 2 5 -5 2 -6 -4 -13 -2 -15 5 -3 7 -7 8 -10 3z"/>
<path d="M6489 7518 c-11 -20 1 -30 21 -17 10 6 11 9 3 9 -7 0 -13 4 -13 10 0
5 6 7 14 4 8 -3 16 -2 19 3 3 5 -3 9 -15 9 -11 0 -24 -8 -29 -18z"/>
<path d="M3484 7519 c13 -8 15 -13 6 -19 -8 -5 -7 -9 5 -13 9 -4 13 -3 10 3
-3 6 -1 10 6 10 7 0 4 7 -7 15 -10 8 -23 14 -29 14 -5 0 -2 -4 9 -10z"/>
<path d="M6450 7506 c0 -2 8 -10 18 -17 15 -13 16 -12 3 4 -13 16 -21 21 -21
13z"/>
<path d="M6440 7486 c0 -2 8 -10 18 -17 15 -13 16 -12 3 4 -13 16 -21 21 -21
13z"/>
<path d="M4175 7470 c3 -5 12 -7 20 -3 21 7 19 13 -6 13 -11 0 -18 -4 -14 -10z"/>
<path d="M3412 7449 c-13 -5 -28 -7 -33 -4 -4 3 -11 -5 -15 -19 -5 -21 -10
-23 -44 -19 -22 3 -40 1 -44 -6 -4 -6 -23 -11 -42 -11 -44 0 -44 -13 5 -86 48
-71 53 -76 118 -136 42 -38 59 -48 88 -48 34 0 75 27 75 50 0 5 30 -2 68 -16
37 -14 75 -26 85 -25 9 0 17 -6 17 -12 0 -8 3 -8 8 -2 11 15 118 65 140 65 45
0 27 99 -23 122 -15 7 -24 17 -21 25 3 8 2 12 -3 9 -5 -3 -36 12 -70 34 -34
22 -67 40 -74 40 -7 0 -17 4 -22 9 -14 14 -123 41 -160 40 -16 0 -41 -4 -53
-10z"/>
<path d="M4105 7440 c-3 -5 -1 -10 4 -10 6 0 11 5 11 10 0 6 -2 10 -4 10 -3 0
-8 -4 -11 -10z"/>
<path d="M4083 7421 c0 -11 5 -18 9 -15 4 3 5 11 1 19 -7 21 -12 19 -10 -4z"/>
<path d="M3717 7399 c7 -7 15 -10 18 -7 3 3 -2 9 -12 12 -14 6 -15 5 -6 -5z"/>
<path d="M4087 7386 c-14 -11 -15 -15 -4 -19 8 -3 20 -1 28 4 11 7 11 9 1 9
-7 0 -10 5 -7 10 8 13 4 12 -18 -4z"/>
<path d="M4757 7360 c15 -21 43 -47 61 -57 17 -10 32 -21 32 -25 0 -5 9 -8 19
-8 11 0 22 -4 26 -9 7 -12 -31 -25 -46 -15 -7 4 -9 3 -6 -2 3 -6 -14 -20 -39
-33 -24 -13 -44 -28 -44 -32 0 -25 147 2 222 41 22 11 47 19 54 16 8 -3 13 0
11 7 -1 7 6 11 16 11 10 -1 16 1 13 4 -3 3 -1 11 5 19 6 7 9 13 6 13 -2 0 -21
7 -42 16 -20 8 -34 11 -31 5 8 -12 -69 -2 -112 15 -21 9 -31 18 -26 25 4 8 3
9 -4 5 -7 -4 -31 4 -55 18 -24 15 -54 26 -66 26 -22 0 -22 0 6 -40z"/>
<path d="M4040 7383 c0 -11 38 -49 43 -42 2 2 -7 15 -20 28 -13 13 -23 20 -23
14z"/>
<path d="M3795 7371 c-6 -11 13 -26 22 -17 4 3 1 6 -6 6 -7 0 -9 5 -6 10 3 6
4 10 1 10 -3 0 -7 -4 -11 -9z"/>
<path d="M3830 7360 c0 -5 5 -10 11 -10 5 0 7 5 4 10 -3 6 -8 10 -11 10 -2 0
-4 -4 -4 -10z"/>
<path d="M3859 7333 c-13 -16 -12 -17 4 -4 9 7 17 15 17 17 0 8 -8 3 -21 -13z"/>
<path d="M3907 7329 c7 -7 15 -10 18 -7 3 3 -2 9 -12 12 -14 6 -15 5 -6 -5z"/>
<path d="M3094 7299 c-3 -6 -1 -16 5 -22 9 -9 10 -7 5 8 l-7 20 24 -20 24 -20
-19 23 c-22 25 -23 26 -32 11z"/>
<path d="M4238 7273 c7 -3 16 -2 19 1 4 3 -2 6 -13 5 -11 0 -14 -3 -6 -6z"/>
<path d="M4035 7260 c3 -5 8 -10 11 -10 2 0 4 5 4 10 0 6 -5 10 -11 10 -5 0
-7 -4 -4 -10z"/>
<path d="M3110 7257 c0 -2 6 -10 14 -16 11 -9 16 -9 22 1 4 7 4 10 -1 6 -4 -4
-14 -3 -22 3 -7 6 -13 9 -13 6z"/>
<path d="M4322 7251 c-11 -7 -11 -9 0 -14 9 -3 15 1 15 9 0 8 -1 14 -1 14 -1
0 -7 -4 -14 -9z"/>
<path d="M4026 7228 c3 -5 10 -6 15 -3 13 9 11 12 -6 12 -8 0 -12 -4 -9 -9z"/>
<path d="M2390 7186 c0 -2 7 -7 16 -10 8 -3 12 -2 9 4 -6 10 -25 14 -25 6z"/>
<path d="M4107 7183 c-9 -8 12 -33 27 -33 6 0 3 5 -7 11 -9 6 -15 14 -12 20 7
10 2 12 -8 2z"/>
<path d="M2478 7173 c6 -2 18 -2 25 0 6 3 1 5 -13 5 -14 0 -19 -2 -12 -5z"/>
<path d="M4980 7160 c-64 -8 -112 -21 -230 -60 -47 -16 -94 -30 -105 -33 -20
-5 -20 -5 0 -6 18 -1 225 47 380 89 73 19 54 23 -45 10z"/>
<path d="M4230 7146 c7 -7 13 -7 20 0 6 6 3 10 -10 10 -13 0 -16 -4 -10 -10z"/>
<path d="M2340 7136 c0 -2 8 -10 18 -17 15 -13 16 -12 3 4 -13 16 -21 21 -21
13z"/>
<path d="M2376 7088 c3 -4 11 -5 19 -1 21 7 19 12 -4 10 -11 0 -18 -5 -15 -9z"/>
<path d="M2690 7080 c-9 -6 -10 -10 -3 -10 6 0 15 5 18 10 8 12 4 12 -15 0z"/>
<path d="M6218 7083 c6 -2 18 -2 25 0 6 3 1 5 -13 5 -14 0 -19 -2 -12 -5z"/>
<path d="M2405 7071 c-3 -5 -2 -12 3 -15 5 -3 9 1 9 9 0 17 -3 19 -12 6z"/>
<path d="M2714 7068 c-4 -7 -4 -10 1 -6 4 4 15 2 24 -5 14 -11 14 -10 2 6 -16
20 -18 21 -27 5z"/>
<path d="M2445 7040 c-3 -6 1 -7 9 -4 18 7 21 14 7 14 -6 0 -13 -4 -16 -10z"/>
<path d="M2485 7020 c3 -5 8 -10 11 -10 2 0 4 5 4 10 0 6 -5 10 -11 10 -5 0
-7 -4 -4 -10z"/>
<path d="M4303 6993 c15 -2 37 -2 50 0 12 2 0 4 -28 4 -27 0 -38 -2 -22 -4z"/>
<path d="M2626 6945 c10 -8 23 -15 28 -15 6 0 1 7 -10 15 -10 8 -23 15 -28 15
-6 0 -1 -7 10 -15z"/>
<path d="M3065 6940 c-3 -6 1 -7 9 -4 18 7 21 14 7 14 -6 0 -13 -4 -16 -10z"/>
<path d="M3323 6903 c9 -2 23 -2 30 0 6 3 -1 5 -18 5 -16 0 -22 -2 -12 -5z"/>
<path d="M771 6858 c-44 -118 -114 -349 -107 -355 8 -8 20 5 48 56 24 44 61
41 243 -17 l150 -48 13 -49 c17 -66 10 -174 -14 -216 -51 -87 -106 -94 -279
-39 -71 23 -143 49 -160 59 -28 16 -30 21 -30 76 0 32 -5 60 -10 62 -6 2 -37
-77 -69 -174 -32 -98 -61 -184 -63 -190 -3 -7 2 -13 10 -13 9 0 18 8 22 19 10
33 53 71 79 71 14 0 83 -18 153 -41 107 -34 137 -40 186 -36 99 9 163 60 217
172 20 41 24 66 24 140 0 54 -4 99 -12 113 -7 12 -9 22 -5 22 4 0 78 -23 163
-52 184 -61 213 -82 208 -150 -6 -89 18 -47 74 127 62 192 67 239 18 162 -18
-29 -39 -49 -55 -53 -33 -8 -719 215 -760 247 -26 21 -27 26 -21 76 6 55 -7
73 -23 31z"/>
<path d="M2493 6873 c4 -3 1 -13 -6 -22 -11 -14 -10 -14 5 -2 16 12 16 31 1
31 -4 0 -3 -3 0 -7z"/>
<path d="M2555 6760 c-3 -6 1 -7 9 -4 18 7 21 14 7 14 -6 0 -13 -4 -16 -10z"/>
<path d="M7124 6713 c46 -63 100 -146 131 -205 10 -21 21 -36 23 -33 6 5 -67
146 -96 186 -35 47 -90 109 -97 109 -2 0 15 -26 39 -57z"/>
<path d="M3048 6703 c7 -3 16 -2 19 1 4 3 -2 6 -13 5 -11 0 -14 -3 -6 -6z"/>
<path d="M6262 6157 c-17 -13 -29 -26 -27 -29 3 -3 -5 -29 -18 -59 -85 -193 7
-469 156 -469 35 0 87 43 113 94 15 28 31 84 38 135 l13 86 -73 112 c-70 105
-118 153 -156 153 -8 0 -28 -11 -46 -23z m127 -284 c42 -36 43 -37 39 -89 -4
-41 -10 -58 -29 -73 -70 -59 -154 13 -134 115 6 36 47 84 70 84 6 0 31 -17 54
-37z"/>
<path d="M437 5743 c-3 -5 -7 -75 -11 -158 -4 -82 -9 -169 -13 -192 -4 -34 -2
-43 10 -43 10 0 18 14 22 41 8 49 35 79 71 79 18 0 104 -63 302 -221 152 -122
284 -228 292 -236 13 -13 8 -14 -45 -9 -33 3 -109 8 -170 11 -276 15 -407 26
-425 35 -27 14 -40 42 -40 84 0 24 -5 36 -14 36 -14 0 -15 -15 -32 -292 -7
-118 5 -144 28 -61 23 81 16 80 390 59 177 -9 352 -22 388 -27 72 -11 100 -32
100 -78 0 -29 15 -59 25 -49 12 11 29 378 18 389 -7 7 -14 -4 -21 -34 -6 -24
-19 -50 -29 -59 -45 -39 -46 -38 -328 188 -149 119 -281 225 -294 235 -13 11
-22 21 -20 22 6 5 577 -31 615 -38 41 -7 60 -30 69 -83 13 -80 30 -42 37 84 3
65 9 152 11 192 6 86 -10 98 -33 24 -23 -73 -22 -73 -452 -47 -421 26 -413 24
-424 105 -6 46 -16 62 -27 43z"/>
<path d="M5688 5508 c-33 -52 -40 -89 -36 -171 4 -70 9 -92 35 -137 58 -100
119 -140 217 -140 45 0 58 4 70 22 9 12 16 35 16 50 0 14 4 37 9 50 7 19 4 26
-15 41 -24 18 -24 18 -15 -7 8 -19 4 -33 -20 -71 -29 -45 -32 -47 -66 -42 -47
8 -68 29 -82 80 -13 45 -5 83 20 103 19 15 81 35 74 25 -4 -7 16 -21 31 -21 4
0 -41 78 -92 156 -53 82 -116 109 -146 62z"/>
<path d="M6230 4911 c-8 -6 -17 -8 -21 -5 -4 2 -22 -20 -40 -48 -31 -49 -33
-59 -33 -138 0 -67 5 -96 22 -134 44 -98 107 -156 167 -156 27 0 75 19 49 20
-6 0 -29 17 -51 38 -44 40 -65 89 -62 143 1 19 -2 43 -6 54 -5 14 -4 16 3 6 7
-10 14 -10 30 -2 11 6 28 11 37 11 32 0 95 -51 120 -98 l26 -47 -6 65 c-12
125 -123 300 -191 300 -16 0 -36 -4 -44 -9z m55 -421 c-3 -5 -12 -10 -18 -10
-7 0 -6 4 3 10 19 12 23 12 15 0z"/>
<path d="M1300 4661 c0 -56 -14 -86 -47 -99 -15 -7 -125 -32 -243 -56 -118
-25 -269 -57 -334 -71 -66 -14 -140 -25 -165 -23 -43 3 -47 6 -69 48 -21 43
-42 63 -42 42 0 -11 68 -337 76 -364 10 -34 23 -17 26 33 4 74 24 85 214 126
86 18 158 32 159 31 2 -2 23 -97 47 -211 30 -139 41 -210 34 -213 -30 -11
-300 -64 -325 -64 -31 0 -64 30 -80 73 -9 24 -31 38 -31 19 0 -6 62 -304 75
-359 9 -39 25 -25 25 21 0 58 7 74 39 91 47 24 691 156 746 153 49 -3 51 -4
74 -51 43 -88 44 -40 4 153 -38 181 -63 238 -63 148 0 -53 -19 -83 -63 -97
-48 -15 -327 -74 -331 -70 -6 9 -89 419 -85 422 9 7 315 67 341 67 44 0 59
-11 79 -56 16 -39 39 -59 39 -35 0 11 -69 339 -76 364 -10 31 -24 18 -24 -22z"/>
<path d="M5915 4379 c-74 -21 -131 -118 -120 -202 12 -82 76 -159 153 -182 22
-6 22 -5 10 14 -7 12 -18 19 -24 17 -8 -3 -10 3 -6 16 5 19 6 19 21 -6 24 -40
31 -31 10 12 -23 43 -23 121 0 138 9 8 27 8 54 2 22 -5 42 -7 44 -4 9 9 -30
116 -58 161 -30 47 -35 49 -84 34z m12 -286 c-3 -10 -5 -4 -5 12 0 17 2 24 5
18 2 -7 2 -21 0 -30z"/>
<path d="M6547 4273 c-49 -38 -70 -85 -75 -166 -4 -58 0 -75 23 -122 39 -80
122 -133 165 -105 12 8 11 13 -12 37 -68 74 -84 178 -34 229 24 24 72 8 114
-37 20 -21 40 -39 45 -39 13 0 7 92 -9 125 -11 23 -28 39 -56 50 -26 10 -38
20 -35 29 14 36 -78 35 -126 -1z"/>
<path d="M6982 3823 c-20 -8 39 -35 62 -29 11 3 27 0 35 -7 12 -10 13 -9 3 9
-17 31 -61 43 -100 27z"/>
<path d="M6380 3803 c-108 -71 -136 -180 -80 -311 19 -43 111 -150 97 -112
-29 79 -31 90 -13 146 29 93 85 107 153 39 23 -23 33 -42 33 -63 0 -17 5 -34
10 -37 6 -4 7 -12 3 -18 -4 -7 1 -6 11 2 10 8 15 23 13 33 -3 10 -1 21 4 24 5
3 5 14 -2 25 -6 11 -8 27 -5 34 3 8 1 17 -5 20 -5 4 -7 11 -4 16 4 5 1 9 -5 9
-6 0 -9 4 -5 9 3 5 -1 16 -9 24 -8 8 -18 26 -22 41 -3 14 -11 29 -17 33 -6 3
-7 1 -3 -5 4 -7 2 -12 -3 -12 -14 0 -14 17 0 25 7 5 5 13 -5 24 -9 10 -13 21
-9 26 5 4 2 5 -4 1 -7 -4 -13 -2 -13 4 0 12 -60 40 -82 39 -7 0 -24 -7 -38
-16z"/>
<path d="M1349 3606 c-118 -42 -189 -135 -189 -249 0 -69 22 -150 65 -244 19
-41 32 -79 29 -84 -8 -14 -255 -129 -276 -129 -15 0 -31 25 -68 103 -67 144
-74 171 -51 221 10 23 36 57 58 77 25 22 37 41 34 51 -5 12 -27 4 -113 -42
l-107 -56 68 -139 c37 -77 105 -218 151 -312 46 -95 89 -173 96 -173 10 0 11
6 4 26 -16 40 -12 78 10 102 36 38 671 342 716 342 24 0 38 -8 58 -35 27 -35
46 -45 46 -24 0 6 -45 103 -101 216 -79 162 -111 217 -151 259 -88 93 -185
124 -279 90z m185 -137 c21 -6 57 -28 81 -50 50 -46 102 -138 92 -163 -6 -14
-364 -196 -387 -196 -11 0 -59 104 -70 153 -11 49 -5 96 16 138 20 41 93 98
144 114 56 17 75 18 124 4z"/>
<path d="M5850 3210 c0 -6 7 -10 15 -10 8 0 15 2 15 4 0 2 -7 6 -15 10 -8 3
-15 1 -15 -4z"/>
<path d="M6209 2844 c-24 -13 -23 -13 10 -9 38 4 48 10 28 18 -7 3 -24 -1 -38
-9z"/>
<path d="M2125 2573 c-40 -6 -170 -38 -470 -117 -295 -78 -385 -90 -440 -57
-66 39 -73 23 -17 -42 20 -24 63 -77 96 -116 36 -45 62 -69 68 -63 5 5 1 23
-12 45 -26 44 -17 67 34 91 34 16 517 149 521 144 3 -4 -188 -421 -213 -467
-25 -43 -59 -81 -73 -81 -6 0 -24 14 -41 31 -17 17 -35 26 -39 22 -11 -11 239
-315 252 -308 5 4 2 20 -7 37 -27 52 -13 108 86 328 51 113 121 271 156 351
l65 146 60 7 c44 4 68 2 88 -9 45 -23 55 -69 21 -100 -27 -25 -25 -60 6 -84
39 -31 89 -4 100 54 6 36 -28 116 -64 148 -41 37 -101 50 -177 40z"/>
<path d="M7170 2411 c0 -6 4 -13 10 -16 6 -3 7 1 4 9 -7 18 -14 21 -14 7z"/>
<path d="M2510 2239 c0 -6 14 -27 30 -46 52 -58 57 -48 -155 -342 -60 -84
-117 -163 -125 -174 -62 -90 -126 -175 -144 -189 -25 -21 -62 -22 -96 -3 -28
16 -50 19 -50 7 0 -5 44 -40 98 -78 53 -39 186 -134 295 -213 108 -78 202
-139 208 -135 7 4 -1 18 -19 38 -57 59 -51 76 95 277 137 187 286 349 346 374
85 35 144 11 133 -57 -5 -33 -2 -43 19 -64 29 -29 59 -26 88 10 23 27 16 77
-17 121 -52 68 -148 84 -235 40 -113 -57 -223 -173 -420 -443 -57 -78 -110
-142 -119 -142 -21 0 -212 139 -212 154 0 13 358 518 428 604 49 62 69 69 126
44 28 -13 48 -17 52 -11 3 6 4 11 3 13 -95 69 -318 226 -323 226 -3 0 -6 -5
-6 -11z"/>
<path d="M3270 1697 c0 -7 16 -21 36 -32 55 -30 71 -72 114 -321 28 -165 37
-190 76 -233 l34 -39 -26 -6 c-45 -12 -100 -53 -155 -117 -91 -104 -107 -119
-128 -119 -11 0 -26 7 -33 16 -59 73 -100 85 -137 38 -55 -70 8 -141 115 -132
70 6 117 38 199 137 99 120 162 151 256 127 27 -7 52 -15 54 -18 5 -5 -86
-240 -115 -299 -27 -51 -50 -57 -132 -33 -11 3 -18 0 -18 -8 0 -8 55 -35 138
-67 75 -30 158 -62 184 -72 62 -24 68 -10 13 29 -39 27 -45 36 -45 67 0 32
214 604 261 696 28 55 42 63 105 55 40 -5 55 -3 52 5 -4 12 -340 149 -365 149
-21 0 -15 -18 10 -31 42 -22 67 -52 67 -81 0 -27 -113 -333 -130 -351 -4 -5
-27 1 -50 13 -58 30 -71 65 -119 329 -22 123 -42 225 -44 227 -3 3 -209 84
-214 84 -2 0 -3 -6 -3 -13z"/>
</g>
</svg>
